<svg width="26" height="22" viewBox="0 0 26 22" fill="none" xmlns="http://www.w3.org/2000/svg">
<path d="M20.5 1H5.5C2.73858 1 0.5 3.23858 0.5 6V16C0.5 18.7614 2.73858 21 5.5 21H20.5C23.2614 21 25.5 18.7614 25.5 16V6C25.5 3.23858 23.2614 1 20.5 1Z" stroke="black"/>
<path d="M2.58333 3.13159C2.30719 3.13159 2.08333 3.35545 2.08333 3.63159C2.08333 3.90773 2.30719 4.13159 2.58333 4.13159V3.13159ZM5.1875 4.13159C5.46364 4.13159 5.6875 3.90773 5.6875 3.63159C5.6875 3.35545 5.46364 3.13159 5.1875 3.13159V4.13159ZM6.75 3.13159C6.47386 3.13159 6.25 3.35545 6.25 3.63159C6.25 3.90773 6.47386 4.13159 6.75 4.13159V3.13159ZM9.35417 4.13159C9.63031 4.13159 9.85417 3.90773 9.85417 3.63159C9.85417 3.35545 9.63031 3.13159 9.35417 3.13159V4.13159ZM10.9167 3.13159C10.6405 3.13159 10.4167 3.35545 10.4167 3.63159C10.4167 3.90773 10.6405 4.13159 10.9167 4.13159V3.13159ZM13.5208 4.13159C13.797 4.13159 14.0208 3.90773 14.0208 3.63159C14.0208 3.35545 13.797 3.13159 13.5208 3.13159V4.13159ZM2.58333 8.39475C2.30719 8.39475 2.08333 8.61861 2.08333 8.89475C2.08333 9.17089 2.30719 9.39475 2.58333 9.39475V8.39475ZM11.4375 9.39475C11.7136 9.39475 11.9375 9.17089 11.9375 8.89475C11.9375 8.61861 11.7136 8.39475 11.4375 8.39475V9.39475ZM2.58333 11.5526C2.30719 11.5526 2.08333 11.7765 2.08333 12.0526C2.08333 12.3288 2.30719 12.5526 2.58333 12.5526V11.5526ZM11.4375 12.5526C11.7136 12.5526 11.9375 12.3288 11.9375 12.0526C11.9375 11.7765 11.7136 11.5526 11.4375 11.5526V12.5526ZM2.58333 14.7105C2.30719 14.7105 2.08333 14.9344 2.08333 15.2105C2.08333 15.4867 2.30719 15.7105 2.58333 15.7105V14.7105ZM11.4375 15.7105C11.7136 15.7105 11.9375 15.4867 11.9375 15.2105C11.9375 14.9344 11.7136 14.7105 11.4375 14.7105V15.7105ZM2.58333 17.8684C2.30719 17.8684 2.08333 18.0923 2.08333 18.3684C2.08333 18.6446 2.30719 18.8684 2.58333 18.8684V17.8684ZM11.4375 18.8684C11.7136 18.8684 11.9375 18.6446 11.9375 18.3684C11.9375 18.0923 11.7136 17.8684 11.4375 17.8684V18.8684ZM0.5 6.76317H25.5V5.76317H0.5V6.76317ZM2.58333 4.13159H5.1875V3.13159H2.58333V4.13159ZM6.75 4.13159H9.35417V3.13159H6.75V4.13159ZM10.9167 4.13159H13.5208V3.13159H10.9167V4.13159ZM2.58333 9.39475H11.4375V8.39475H2.58333V9.39475ZM2.58333 12.5526H11.4375V11.5526H2.58333V12.5526ZM2.58333 15.7105H11.4375V14.7105H2.58333V15.7105ZM2.58333 18.8684H11.4375V17.8684H2.58333V18.8684Z" fill="black"/>
<path d="M19.0418 4.40786C19.47 4.40786 19.8127 4.05781 19.8127 3.63154C19.8127 3.20527 19.47 2.85522 19.0418 2.85522C18.6136 2.85522 18.271 3.20527 18.271 3.63154C18.271 4.05781 18.6136 4.40786 19.0418 4.40786Z" stroke="black" stroke-width="0.5"/>
<path d="M21.8541 4.40786C22.2823 4.40786 22.6249 4.05781 22.6249 3.63154C22.6249 3.20527 22.2823 2.85522 21.8541 2.85522C21.4259 2.85522 21.0833 3.20527 21.0833 3.63154C21.0833 4.05781 21.4259 4.40786 21.8541 4.40786Z" stroke="black" stroke-width="0.5"/>
<mask id="path-5-outside-1_1807_1361" maskUnits="userSpaceOnUse" x="13.5625" y="9.47363" width="10" height="10" fill="black">
<rect fill="white" x="13.5625" y="9.47363" width="10" height="10"/>
<path d="M21.8542 14.1578C21.8542 14.8865 21.6403 15.5988 21.2397 16.2047C20.8391 16.8105 20.2697 17.2828 19.6035 17.5616C18.9373 17.8405 18.2043 17.9134 17.4971 17.7713C16.7898 17.6291 16.1402 17.2782 15.6303 16.763C15.1205 16.2477 14.7732 15.5913 14.6326 14.8766C14.4919 14.1619 14.5641 13.4212 14.84 12.748C15.116 12.0748 15.5833 11.4994 16.1828 11.0945C16.7824 10.6897 17.4873 10.4736 18.2083 10.4736V14.1578H21.8542Z"/>
</mask>
<path d="M21.8542 14.1578C21.8542 14.8865 21.6403 15.5988 21.2397 16.2047C20.8391 16.8105 20.2697 17.2828 19.6035 17.5616C18.9373 17.8405 18.2043 17.9134 17.4971 17.7713C16.7898 17.6291 16.1402 17.2782 15.6303 16.763C15.1205 16.2477 14.7732 15.5913 14.6326 14.8766C14.4919 14.1619 14.5641 13.4212 14.84 12.748C15.116 12.0748 15.5833 11.4994 16.1828 11.0945C16.7824 10.6897 17.4873 10.4736 18.2083 10.4736V14.1578H21.8542Z" stroke="black" stroke-width="1.6" stroke-linejoin="round" mask="url(#path-5-outside-1_1807_1361)"/>
<mask id="path-6-outside-2_1807_1361" maskUnits="userSpaceOnUse" x="18.8958" y="8.15784" width="5" height="5" fill="black">
<rect fill="white" x="18.8958" y="8.15784" width="5" height="5"/>
<path d="M20.2916 8.89468C20.6336 8.89468 20.9722 8.96275 21.2882 9.095C21.6041 9.22725 21.8912 9.42109 22.133 9.66545C22.3748 9.90982 22.5667 10.1999 22.6975 10.5192C22.8284 10.8385 22.8958 11.1807 22.8958 11.5263L20.2916 11.5263V8.89468Z"/>
</mask>
<path d="M20.2916 8.89468C20.6336 8.89468 20.9722 8.96275 21.2882 9.095C21.6041 9.22725 21.8912 9.42109 22.133 9.66545C22.3748 9.90982 22.5667 10.1999 22.6975 10.5192C22.8284 10.8385 22.8958 11.1807 22.8958 11.5263L20.2916 11.5263V8.89468Z" stroke="black" stroke-width="1.4" stroke-linejoin="round" mask="url(#path-6-outside-2_1807_1361)"/>
<path d="M18.7292 13.8948H14.5625" stroke="black" stroke-width="0.5"/>
</svg>
