<svg width="27" height="20" viewBox="0 0 27 20" fill="none" xmlns="http://www.w3.org/2000/svg">
<path d="M1 6.54762H4.57143L23.4156 0.789689C24.7009 0.396954 26 1.35841 26 2.70239V16.868C26 18.2331 24.6626 19.1971 23.3675 18.7654L4.57143 12.5H1V6.54762Z" stroke="black"/>
<mask id="path-2-inside-1_1838_579" fill="white">
<path d="M13.9632 15.2272C13.5934 16.3475 12.8175 17.2827 11.8061 17.8273C10.7947 18.3718 9.63069 18.4811 8.57018 18.1309C7.50967 17.7808 6.63951 17.0001 6.15112 15.9604C5.66273 14.9207 5.59612 13.7073 5.96594 12.5871L9.96459 13.9072L13.9632 15.2272Z"/>
</mask>
<path d="M13.9632 15.2272C13.5934 16.3475 12.8175 17.2827 11.8061 17.8273C10.7947 18.3718 9.63069 18.4811 8.57018 18.1309C7.50967 17.7808 6.63951 17.0001 6.15112 15.9604C5.66273 14.9207 5.59612 13.7073 5.96594 12.5871L9.96459 13.9072L13.9632 15.2272Z" stroke="black" stroke-width="2" mask="url(#path-2-inside-1_1838_579)"/>
</svg>
