<svg width="25" height="25" viewBox="0 0 25 25" fill="none" xmlns="http://www.w3.org/2000/svg">
<path d="M2.77778 22.2222H23.6111C24.3782 22.2222 25 22.844 25 23.6111C25 24.3782 24.3782 25 23.6111 25H1.38889C0.621826 25 0 24.3782 0 23.6111V1.38889C0 0.621827 0.621826 0 1.38889 0C2.15595 0 2.77778 0.621827 2.77778 1.38889V22.2222Z" fill="black"/>
<path d="M7.95756 16.2276C7.43293 16.7872 6.554 16.8156 5.99439 16.2909C5.43479 15.7663 5.40644 14.8874 5.93107 14.3278L11.1394 8.77221C11.6468 8.23101 12.4899 8.18408 13.0542 8.66562L17.1649 12.1735L22.5209 5.38929C22.9962 4.78724 23.8695 4.68449 24.4716 5.15979C25.0736 5.6351 25.1764 6.50847 24.7011 7.11052L18.4511 15.0272C17.9629 15.6455 17.0587 15.7345 16.4594 15.2231L12.2594 11.639L7.95756 16.2276Z" fill="black"/>
</svg>
