<svg width="27" height="21" viewBox="0 0 27 21" fill="none" xmlns="http://www.w3.org/2000/svg">
<path d="M22.9444 18.0303V17.5556C22.9444 17.0033 23.3922 16.5556 23.9444 16.5556H24.4722C25.316 16.5556 26 15.8716 26 15.0278V7.88892C26 6.23206 24.6569 4.88892 23 4.88892H10.6667C9.00981 4.88892 7.66667 6.23206 7.66667 7.88892V13.5556C7.66667 15.2124 9.00981 16.5556 10.6667 16.5556H17.8129C18.6086 16.5556 19.3716 16.8717 19.9342 17.4343L21.2373 18.7374C21.8673 19.3673 22.9444 18.9212 22.9444 18.0303Z" stroke="black"/>
<path d="M4.05556 14.1413V13.6667C4.05556 13.1144 3.60784 12.6667 3.05556 12.6667H2.52778C1.68401 12.6667 1 11.9827 1 11.1389V4C1 2.34315 2.34315 1 4 1H16.3333C17.9902 1 19.3333 2.34315 19.3333 4V9.66667C19.3333 11.3235 17.9902 12.6667 16.3333 12.6667H9.18709C8.39144 12.6667 7.62838 12.9827 7.06577 13.5453L5.76266 14.8484C5.1327 15.4784 4.05556 15.0322 4.05556 14.1413Z" fill="white" stroke="black"/>
<path d="M7.41694 6.83335C7.41694 7.46234 6.90704 7.97224 6.27805 7.97224C5.64906 7.97224 5.13916 7.46234 5.13916 6.83335C5.13916 6.20436 5.64906 5.69446 6.27805 5.69446C6.90704 5.69446 7.41694 6.20436 7.41694 6.83335Z" stroke="black" stroke-width="0.5"/>
<path d="M15.1948 6.83335C15.1948 7.46234 14.6849 7.97224 14.0559 7.97224C13.4269 7.97224 12.917 7.46234 12.917 6.83335C12.917 6.20436 13.4269 5.69446 14.0559 5.69446C14.6849 5.69446 15.1948 6.20436 15.1948 6.83335Z" stroke="black" stroke-width="0.5"/>
<path d="M11.3059 6.83335C11.3059 7.46234 10.796 7.97224 10.167 7.97224C9.53797 7.97224 9.02808 7.46234 9.02808 6.83335C9.02808 6.20436 9.53797 5.69446 10.167 5.69446C10.796 5.69446 11.3059 6.20436 11.3059 6.83335Z" stroke="black" stroke-width="0.5"/>
</svg>
