<svg width="27" height="27" viewBox="0 0 27 27" fill="none" xmlns="http://www.w3.org/2000/svg">
<path d="M3 3.47217H24C25.1046 3.47217 26 4.3676 26 5.47217V23.6944C26 24.799 25.1046 25.6944 24 25.6944H3C1.89543 25.6944 1 24.799 1 23.6944V5.47217C1 4.3676 1.89543 3.47217 3 3.47217Z" stroke="black"/>
<path d="M1 8.33337H26" stroke="black"/>
<path d="M4.27783 4.51389V1.73611C4.27783 1.05343 4.83126 0.5 5.51394 0.5C6.19663 0.5 6.75005 1.05343 6.75005 1.73611V4.51389C6.75005 5.19657 6.19663 5.75 5.51394 5.75C4.83126 5.75 4.27783 5.19657 4.27783 4.51389Z" fill="white" stroke="black"/>
<path d="M9.69434 4.51389V1.73611C9.69434 1.05343 10.2478 0.5 10.9304 0.5C11.6131 0.5 12.1666 1.05343 12.1666 1.73611V4.51389C12.1666 5.19657 11.6131 5.75 10.9304 5.75C10.2478 5.75 9.69434 5.19657 9.69434 4.51389Z" fill="white" stroke="black"/>
<path d="M14.9722 4.51389V1.73611C14.9722 1.05343 15.5256 0.5 16.2083 0.5C16.891 0.5 17.4444 1.05343 17.4444 1.73611V4.51389C17.4444 5.19657 16.891 5.75 16.2083 5.75C15.5256 5.75 14.9722 5.19657 14.9722 4.51389Z" fill="white" stroke="black"/>
<path d="M20.25 4.51389V1.73611C20.25 1.05343 20.8034 0.5 21.4861 0.5C22.1688 0.5 22.7222 1.05343 22.7222 1.73611V4.51389C22.7222 5.19657 22.1688 5.75 21.4861 5.75C20.8034 5.75 20.25 5.19657 20.25 4.51389Z" fill="white" stroke="black"/>
<path d="M5.38892 11.8055H7.86114C8.13728 11.8055 8.36114 12.0294 8.36114 12.3055V14.7778C8.36114 15.0539 8.13728 15.2778 7.86114 15.2778H5.38892C5.11277 15.2778 4.88892 15.0539 4.88892 14.7778V12.3055C4.88892 12.0294 5.11277 11.8055 5.38892 11.8055Z" stroke="black"/>
<path d="M12.4722 11.8055H14.9444C15.2205 11.8055 15.4444 12.0294 15.4444 12.3055V14.7778C15.4444 15.0539 15.2205 15.2778 14.9444 15.2778H12.4722C12.196 15.2778 11.9722 15.0539 11.9722 14.7778V12.3055C11.9722 12.0294 12.196 11.8055 12.4722 11.8055Z" stroke="black"/>
<path d="M5.38892 18.0555H7.86114C8.13728 18.0555 8.36114 18.2794 8.36114 18.5555V21.0278C8.36114 21.3039 8.13728 21.5278 7.86114 21.5278H5.38892C5.11277 21.5278 4.88892 21.3039 4.88892 21.0278V18.5555C4.88892 18.2794 5.11277 18.0555 5.38892 18.0555Z" stroke="black"/>
<path d="M18.3611 13.1944L19.3964 14.2298C19.5917 14.425 19.9083 14.425 20.1035 14.2298L22.5278 11.8055" stroke="black" stroke-linecap="round"/>
<path d="M12.4722 18.0555H14.9444C15.2205 18.0555 15.4444 18.2794 15.4444 18.5555V21.0278C15.4444 21.3039 15.2205 21.5278 14.9444 21.5278H12.4722C12.196 21.5278 11.9722 21.3039 11.9722 21.0278V18.5555C11.9722 18.2794 12.196 18.0555 12.4722 18.0555Z" stroke="black"/>
<path d="M19.5557 18.0555H22.0279C22.304 18.0555 22.5279 18.2794 22.5279 18.5555V21.0278C22.5279 21.3039 22.304 21.5278 22.0279 21.5278H19.5557C19.2795 21.5278 19.0557 21.3039 19.0557 21.0278V18.5555C19.0557 18.2794 19.2795 18.0555 19.5557 18.0555Z" stroke="black"/>
</svg>
