<svg width="26" height="27" viewBox="0 0 26 27" fill="none" xmlns="http://www.w3.org/2000/svg">
<path fill-rule="evenodd" clip-rule="evenodd" d="M18.2009 0.440838C17.894 0.149218 17.3674 0.182994 17.3674 0.606294V4.38479C17.3674 4.93708 17.8151 5.38479 18.3674 5.38479H22.4472C22.85 5.38479 22.877 4.88528 22.5851 4.60782L18.2009 0.440838Z" fill="black"/>
<path fill-rule="evenodd" clip-rule="evenodd" d="M18.0273 0.22274C17.8864 0.0802109 17.6943 0 17.4939 0H6.40649C5.85421 0 5.40649 0.447714 5.40649 0.999999V21.6614C5.40649 22.2137 5.85421 22.6614 6.40649 22.6614H22.032C22.5843 22.6614 23.032 22.2137 23.032 21.6614V5.5937C23.032 5.39629 22.9542 5.20684 22.8154 5.06644C22.3442 4.58976 21.532 4.92343 21.532 5.5937V20.1614C21.532 20.7137 21.0843 21.1614 20.532 21.1614H7.90649C7.35421 21.1614 6.90649 20.7137 6.90649 20.1614V2.5C6.90649 1.94772 7.35421 1.5 7.90649 1.5H17.4939C18.16 1.5 18.4956 0.69645 18.0273 0.22274Z" fill="black"/>
<path d="M10.7384 18.4467L9.63428 18.2627C9.42869 18.2284 9.23895 18.1308 9.09157 17.9834L2.79852 11.6904L1.47691 10.3687C1.17155 10.0634 1 9.64923 1 9.21739V9.17881C1 8.77167 1.16174 8.3812 1.44963 8.09331C1.73753 7.80541 2.12799 7.64368 2.53514 7.64368H2.57371C3.00555 7.64368 3.4197 7.81522 3.72506 8.12058L5.04668 9.4422L5.2715 9.66702L11.5351 15.9307C11.7006 16.0961 11.8027 16.3143 11.8239 16.5472L11.8987 17.3698C11.958 18.0221 11.3845 18.5544 10.7384 18.4467Z" fill="#F6F6FB"/>
<path d="M2.79852 11.6904L9.09157 17.9834C9.23895 18.1308 9.42869 18.2284 9.63428 18.2627L10.7384 18.4467C11.3845 18.5544 11.958 18.0221 11.8987 17.3698L11.8239 16.5472C11.8027 16.3143 11.7006 16.0961 11.5351 15.9307L5.2715 9.66702L5.04668 9.4422M2.79852 11.6904L1.47691 10.3687C1.17155 10.0634 1 9.64923 1 9.21739V9.17881C1 8.77167 1.16174 8.3812 1.44963 8.09331V8.09331C1.73753 7.80541 2.12799 7.64368 2.53514 7.64368H2.57371C3.00555 7.64368 3.4197 7.81522 3.72506 8.12058L5.04668 9.4422M2.79852 11.6904L5.04668 9.4422" stroke="black" stroke-width="1.5"/>
<line x1="8.79336" y1="6.59409" x2="17.4852" y2="6.59409" stroke="black" stroke-width="1.2" stroke-linecap="round"/>
<line x1="8.79336" y1="9.29185" x2="19.7334" y2="9.29185" stroke="black" stroke-width="1.2" stroke-linecap="round"/>
<line x1="11.9416" y1="12.4393" x2="19.7342" y2="12.4393" stroke="black" stroke-width="1.2" stroke-linecap="round"/>
<line x1="13.7404" y1="15.1371" x2="19.7345" y2="15.1371" stroke="black" stroke-width="1.2" stroke-linecap="round"/>
<line x1="13.5896" y1="17.9348" x2="20.7837" y2="17.9348" stroke="white"/>
<circle cx="19.4803" cy="19.7388" r="5.76965" fill="#F6F6FB" stroke="black" stroke-width="1.5"/>
<path d="M19.568 21.8813C19.998 21.8813 20.328 22.2113 20.328 22.6413C20.328 23.0713 19.998 23.4013 19.568 23.4013C19.138 23.4013 18.808 23.0713 18.808 22.6413C18.808 22.2113 19.138 21.8813 19.568 21.8813ZM19.568 15.4813C19.988 15.4813 20.278 15.6513 20.268 16.0913L20.108 20.6613C20.098 21.0713 19.838 21.2113 19.568 21.2113C19.298 21.2113 19.038 21.0713 19.028 20.6613L18.868 16.0913C18.858 15.6513 19.148 15.4813 19.568 15.4813Z" fill="black"/>
</svg>
