<svg width="19" height="25" viewBox="0 0 19 25" fill="none" xmlns="http://www.w3.org/2000/svg">
<path fill-rule="evenodd" clip-rule="evenodd" d="M9.37499 25C9.87186 25 18.75 15.1347 18.75 9.74998C18.75 4.36521 14.5526 0 9.37499 0C4.19732 0 0 4.36521 0 9.74998C0 15.1347 8.87813 25 9.37499 25Z" fill="black"/>
<ellipse cx="9.375" cy="9.375" rx="7.125" ry="7.125" fill="white"/>
<path d="M7.92755 5.42H10.1715C12.2475 5.42 13.1355 6.476 13.1355 7.892V8.06C13.1355 9.464 12.1755 10.664 10.1715 10.664H8.44355V13.364C8.44355 13.82 8.08355 14.024 7.67555 14.024C7.26755 14.024 6.90755 13.82 6.90755 13.364V6.416C6.90755 5.66 7.15955 5.42 7.92755 5.42ZM8.44355 6.704V9.368H9.96755C10.9755 9.368 11.5875 9.044 11.5875 8.036V7.904C11.5875 6.956 10.9755 6.704 10.0995 6.704H8.44355Z" fill="black"/>
</svg>
